<svg id="Layer_1" data-name="Layer 1" xmlns="http://www.w3.org/2000/svg" viewBox="0 0 644.56 594.82"><title>cat</title><path id="silouete" d="M691.7,641.32c-1.16,4.94-2.3,9.89-3.48,14.83-3.43,14.46-6.74,29-10.36,43.37a37.33,37.33,0,0,1-15,21.72,23.25,23.25,0,0,1-13.14,4q-34.62,1.11-69.24,2-13.93.36-27.89.36c-7.48,0-14.84-1-21.75-4.11-8.9-4-14.08-11.32-16.85-20.29-3.69-12-6.94-24.1-10.29-36.18-1.9-6.86-3.64-13.76-5.47-20.64-.13-.51-.35-1-.63-1.73-3.51,1.5-6.89,3-10.3,4.38A318.11,318.11,0,0,1,422,667.65c-19.13,3.43-38.37,5.48-57.8,4.57-11.27-.52-22.69-.62-33.6-4-16-5-27.05-15.24-32.22-31.4-1.8-5.65-.35-11,2.62-15.78,2-3.19,2.25-5.74,0-8.75-1.08-1.46-1.35-4-2.69-4.67s-3.54.36-5.35.7c-11.56,2.15-24.46-5.54-27.15-16.69-1.94-8,.33-15.53,5-22.23a89.26,89.26,0,0,1,5.78-6.84,5.16,5.16,0,0,0-.86-.77c-11.11-6.33-17.28-16.33-20.95-28.18-5.13-16.61-3.77-33.06.26-49.74,6.44-26.64,22.2-46.89,42.41-64.22,15.39-13.21,33.37-21.8,52.62-27.85a4.61,4.61,0,0,0,3.37-3.28c8.19-23.21,16.23-46.48,24.81-69.55,4.93-13.27,10.78-26.2,16.22-39.28.23-.57.45-1.14.83-2.07-3.76.17-7.26.27-10.75.5-6.18.41-12.35,1-18.54,1.35-4.57.27-7.09-2.18-6.66-6.22.27-2.59,1.92-4.3,5-4.61,5.47-.56,10.95-1,16.44-1.33,5.8-.39,11.6-.7,17.41-1a3.32,3.32,0,0,0,3.24-2.12c2.46-5.42,5-10.84,7.53-16.22.85-1.77,0-2.19-1.49-2.38-9.36-1.2-18.73-2.45-28.1-3.6-3.15-.38-6.33-.46-9.49-.79a5.09,5.09,0,0,1-4.89-5.65,5,5,0,0,1,5.35-5c8.65.52,17.3,1.13,25.92,2,5.45.57,10.86,1.63,16.26,2.67,1.81.35,2.65-.14,3.45-1.71,7-13.71,14-27.44,21.27-41,8.64-16.28,18.46-31.76,31.55-44.91,7.63-7.66,16.69-11.72,27.7-10.14a37.48,37.48,0,0,1,21.54,10.64c6.93,7,13.24,14.53,19.76,21.89,2,2.26,3.83,4.67,5.68,7.06a4.43,4.43,0,0,0,4,1.88q27.18-.78,54.38-1.42c1.91-.05,2.87-1.16,3.89-2.51,7-9.18,13.86-18.46,21.06-27.47a39.19,39.19,0,0,1,20.44-13.45c11.09-3.12,20.73-.5,29.37,6.93,12.28,10.56,21.55,23.53,29.71,37.29,9,15.19,17.49,30.68,26.11,46.09,1.08,1.94,2.1,2.64,4.38,2,12.84-3.7,26.05-5.45,39.29-7a21.58,21.58,0,0,1,3-.08,5.39,5.39,0,0,1,5.34,4.85,5.14,5.14,0,0,1-4.05,5.71c-3.57.69-7.23.86-10.81,1.49-9.29,1.62-18.56,3.37-27.84,5.08a18.89,18.89,0,0,0-2.18.72l.87,2.6.64-1.49c2.81,5.39,5.52,10.35,8,15.42a4.37,4.37,0,0,0,4.5,2.79c9.38,0,18.76.11,28.14.22,1.7,0,3.4.13,5.1.29a5.48,5.48,0,0,1-.08,10.93c-3,.14-6-.07-9.06-.1q-9.64-.12-19.3-.21a14.2,14.2,0,0,0-1.57.17l32.77,71.94c-.12,0,.1.06.17,0,5.5-5.6,12.54-7.33,20-7.32,12.09,0,24.17.4,36.24.85,5.57.21,11.14.71,16.66,1.45,8.91,1.21,16.59,9,17.25,17.08.8,9.84-4.84,19.15-14,21.6-4.54,1.22-9.5,1.16-14.28,1.16-9.37,0-18.75-.3-28.12-.56-1.3,0-2,.22-2.3,1.57-2.26,9.17-4.6,18.32-6.88,27.48a3.76,3.76,0,0,0,.09,2.05c1.28,3.65,2.58,7.3,4.05,10.88a3.59,3.59,0,0,0,2,1.61c10.67,3.93,21.51,7.45,32,11.79A111.9,111.9,0,0,1,883,447.88a85.94,85.94,0,0,1,8.31,8.74c4.6,5.25,5.58,11.5,4.16,18.11-3.08,14.3-6.3,28.57-9.55,42.84a17.24,17.24,0,0,1-9.63,11.86,4.67,4.67,0,0,0-2.62,3.19c-6.13,21.23-14.22,41.76-22.54,62.2Q837.55,628.06,824,661.29c-1.79,4.37-3.86,8.62-5.9,12.88-5.09,10.63-13.51,17-25.07,19A229.89,229.89,0,0,1,769.78,696,66.33,66.33,0,0,1,743,692.22c-10.55-3.8-20.94-8-30.34-14.36-9.73-6.54-15.49-15.59-17.9-26.94-.69-3.25-1.64-6.43-2.47-9.64ZM413,265.68l3,.23c8.4.76,16.81,1.48,25.21,2.31a6.43,6.43,0,0,1,3,1.15,5.43,5.43,0,0,1,1.81,6.25c-.91,2.46-3.15,3.71-6.16,3.49-9.65-.73-19.31-1.43-29-2.18-2.06-.16-3.23.6-4.1,2.55a1119.13,1119.13,0,0,0-40.49,105.58,23.58,23.58,0,0,0-.52,2.32c.87-.08,1.4-.07,1.92-.18a233.33,233.33,0,0,1,53.58-4.7c18.69.38,37,2.82,54.78,9,22,7.67,39.67,20.58,49.9,42.1,1.87,3.94,3.75,6.3,8.49,6.21,3-.06,5.92,1.29,9,2,.4-1.48.75-2.9,1.16-4.31,1.62-5.65,5-9.6,10.66-11.65a40.42,40.42,0,0,1,17.12-2.33,15.08,15.08,0,0,1,11.18,5.86c2,2.56,3.54,5.44,5.28,8.17.35.55.68,1.11,1.21,2,5.65-10.49,14-15.63,25.69-14.05,11.49,1.55,19.39,7.34,21.36,19.85,11.79-9.43,23.09-10.09,34.34.17.22-.89.34-1.65.59-2.36,1.84-5.08,3.23-10.39,5.65-15.17,5.82-11.44,16.23-17.1,28-20.65,12.83-3.88,26.16-3.77,39.36-4.12,8-.21,16.09.66,24.12,1.25,2.18.16,2.91-.44,3.34-2.54,3.17-15.24,6.49-30.44,9.67-45.68a7.64,7.64,0,0,0-.24-4.4q-12.74-29.29-25.7-58.48c-3.55-7.91-7.53-15.63-11.27-23.46-.75-1.57-1.75-2.48-3.6-2.23-9.43,1.29-18.86,2.55-28.28,3.84-3.75.51-6.24-1-6.87-4.18s1.39-5.89,5-6.59,7.32-1.31,11-1.86c4.88-.72,9.78-1.35,15-2.06-.38-.9-.63-1.6-1-2.26-1.94-3.8-4-7.53-5.81-11.39-1-2.07-2-2.57-4.15-1.58-5.33,2.48-10.75,4.8-16.13,7.17-2.3,1-4.63,1.47-6.83-.18a5.42,5.42,0,0,1,1.13-9.21c5.57-2.7,11.26-5.16,16.94-7.62,1.7-.74,2.28-1.47,1.24-3.28-8.46-14.7-16.73-29.51-25.31-44.14-7.43-12.69-16.15-24.41-27.19-34.28-7.55-6.76-15.29-7.87-24.39-3.38a32.3,32.3,0,0,0-10.83,8.62c-5.17,6.37-10.12,12.93-15.16,19.41-3.36,4.33-6.72,8.66-10,13a3.7,3.7,0,0,0-.57,2.11c0,3.72.18,7.44.2,11.16,0,5.34-3.27,9-8.1,9.19-5.16.16-8.63-3.37-8.8-9-.11-3.33-.13-6.67-.35-10,0-.72-.76-2-1.23-2-2.57-.2-5.16-.1-7.72-.1,0,5.26.11,9.83,0,14.39a8.28,8.28,0,0,1-8.25,8.09c-4.87-.09-8.32-3.29-8.53-8-.18-3.95-.31-7.9-.35-11.85,0-1.4-.48-2-1.9-1.89a40.1,40.1,0,0,1-4.65,0c-1.82-.11-2.49.6-2.38,2.44.19,3.48.28,7,.31,10.46,0,5.28-3.51,9.09-8.46,9.15s-8.37-3.56-8.53-8.78c-.08-2.71-.39-5.43-.26-8.13a10.69,10.69,0,0,0-3.21-8.6c-4.87-5.19-8.9-11.15-13.67-16.44-5.16-5.74-10.29-11.68-16.29-16.47-9.67-7.74-21.18-6.94-29.51,1.32a128.74,128.74,0,0,0-22.56,29.41c-9.37,17.12-18.41,34.42-27.57,51.65-1.45,2.72-1.34,2.81,1.59,3.85,5.9,2.11,11.82,4.19,17.66,6.47a5.4,5.4,0,0,1,3.2,7.24c-1,2.65-3.85,4-6.91,3.12-1.41-.4-2.78-1-4.16-1.46-5-1.81-10-3.65-15.08-5.44-1.26-.45-2.65-.86-3.43.76C417.8,255.4,415.52,260.3,413,265.68ZM517.67,441.17c-.21-.6-.3-1-.46-1.31a66.85,66.85,0,0,0-27.87-30.58c-15.62-8.92-32.66-13.25-50.35-15-26.88-2.73-53.53-1.28-79.7,5.93-25.39,7-48.11,18.74-66.42,38.14-14.13,15-24.57,31.85-28.78,52.4-3.07,14.93-3.28,29.45,2.15,43.86,3.61,9.6,9.92,16.51,19.56,20.18a105.37,105.37,0,0,0,38.9,6.81,365.66,365.66,0,0,0,63.22-6.73,310.87,310.87,0,0,0,82.33-28.11c12.78-6.41,24.89-13.88,35.58-23.46a4.1,4.1,0,0,0,1.38-2.84c-.73-10.19-1.76-20.37-2.41-30.57-.3-4.52-.58-9.21.27-13.59C506.44,449.27,511,444.28,517.67,441.17ZM594,595.62v.08c15.18-.29,30.36-.63,45.55-.85q25.1-.37,50.21-.52c1.94,0,2.66-.66,3-2.52,1.3-6.37,3-12.67,4.14-19.06S699,559.61,699.84,553c.6-4.59-1.67-7.75-5.63-9.73a15.84,15.84,0,0,0-4.82-1.61,81,81,0,0,0-9.71-.81c-21.15-.39-42.31-1.07-63.45-.94-22.24.14-44.47,1-66.69,1.73q-23,.81-45.94,2.39c-9.26.64-14.46,6.55-13.87,14.73a206.87,206.87,0,0,0,5.83,35.73c.48,1.89,1.23,2.4,3.12,2.37Q546.32,596.18,594,595.62Zm95.88,8.69-191,2.58a11.49,11.49,0,0,0,.18,1.44q6.77,26.42,13.51,52.85c.41,1.61,1.2,2,2.76,2,13.79-.22,27.57-.33,41.36-.53q58.9-.82,117.81-1.65c2,0,2.75-.71,3.17-2.61,3.64-16.24,7.38-32.45,11.08-48.67C689.12,608,689.45,606.26,689.86,604.31Zm79.75-188.22c-.54-.29-.67-.42-.8-.42-9.73-.37-19.46-1-29.18-1-7.19,0-14.39.71-21.55,1.39a48.89,48.89,0,0,0-25,9.9,10.23,10.23,0,0,0-4.31,7.16c-.63,5.17,1.89,8.88,5.63,12.05,16.74,14.19,36.11,23.59,56.56,30.92a217,217,0,0,0,62.91,12.34c16.59.81,33,0,49-4.9a75,75,0,0,0,15.8-6.48c6-3.5,6.59-10.74,2-15.92-6.64-7.52-15.06-12.61-23.75-17.27-13.72-7.36-28.6-11.79-43.29-16.67-1.5-.5-3-.94-4.67-1.45-.34,1.07-.63,1.87-.85,2.68q-3.27,12.35-6.52,24.69a9.69,9.69,0,0,1-7.55,7.43c-9.15,2.1-17.7,1.17-25-5.53-2.47-2.27-4.3-5-4.13-8.27a150.5,150.5,0,0,1,1.73-15.4C767.5,426.24,768.63,421.18,769.61,416.09ZM708.87,562.16c-.49,2.66-.86,5-1.35,7.2-3,13.92-6.08,27.83-9.09,41.75-.72,3.32-.34,4,3,5.07,18.13,6.1,36.46,11.36,55.37,14.63a212.88,212.88,0,0,0,63.39,1.84c2.93-.37,4.35-1.52,5.37-4.11,6-15.18,12.14-30.33,18.22-45.49a18.63,18.63,0,0,0,.51-2,222,222,0,0,1-68.77-1.28C752.85,575.91,730.83,569.7,708.87,562.16ZM674.74,670.87,516.13,673a6.47,6.47,0,0,0,0,1.31c2.34,8.43,4.5,16.9,7.11,25.24,1.7,5.43,4.3,10.49,9.47,13.64,5.41,3.28,11.43,4.36,17.59,4.35,15.25,0,30.51-.16,45.76-.52,17.65-.42,35.3-1.18,52.95-1.69,4.27-.12,8.06-1.44,10.81-4.57a43.41,43.41,0,0,0,7-10c1.87-4,2.75-8.52,3.87-12.86C672.09,682.4,673.33,676.81,674.74,670.87ZM486.33,599.45c-1.07.41-1.78.69-2.5.95C468.66,606,453.68,612.17,438.29,617c-25.45,8.06-51.4,13.94-78.35,13.83-16.14-.06-32.22-.64-47.67-6.14a2,2,0,0,0-1.75.75c-2.23,3.82-2.83,7.76-.86,11.95,5.14,10.89,13.46,18.15,25.12,21,13.7,3.34,27.77,3.44,41.8,3.44,15.85,0,31.47-2.41,47-5.25A285.18,285.18,0,0,0,493,635c1.57-.73,2-1.45,1.54-3.16-1.43-5.23-2.68-10.51-4-15.76C489.17,610.62,487.78,605.16,486.33,599.45Zm205.58-93.86c.29,8.11.64,16.16.83,24.21,0,1.77.65,2.5,2.31,3.08,7.64,2.63,13,7.53,14.32,15.81a3.11,3.11,0,0,0,2.46,2.82c27.2,9.44,54.86,16.94,83.64,19.66a201.81,201.81,0,0,0,51.2-1.63,3.79,3.79,0,0,0,3.36-2.65c2.8-7.78,5.7-15.54,8.5-23.33,1-2.8,1.84-5.68,2.71-8.39C801.5,543.77,745.58,532.05,691.91,505.59ZM508.71,515l-2,1.39c-5.61,3.86-11.08,8-16.86,11.53-15.74,9.72-32.6,17.12-50,23.37-16.92,6.09-34.07,11.5-51.87,14.22q-24.42,3.72-49.08,6c-16.19,1.48-32.35.8-48.1-3.94a3,3,0,0,0-2.18.09c-4.64,3-9.24,6-11.31,11.56-1.67,4.47-3.05,9,.41,13.2s8,6.43,13.52,5.49A24.62,24.62,0,0,0,304,591.75a69.23,69.23,0,0,1,5.41-4.4,16.32,16.32,0,0,1,9.3-3.19c7-.27,12.75,2.66,18.23,6.52,8.64,6.07,24.92,9.77,36.91.86a52.15,52.15,0,0,0,9.29-9.31c5.06-6.32,11.35-9.56,19.46-9.54a43.51,43.51,0,0,1,16.14,2.74,41,41,0,0,0,17.93,3.07c10.29-.65,18.15-5.21,23.49-14,1.8-3,3.42-6.07,5.09-9.12A18.8,18.8,0,0,1,481.57,545a4,4,0,0,0,2.58-1.48,21.89,21.89,0,0,1,12.72-8.41c3.92-.86,7.94-1.27,11.93-1.77,1.32-.16,2-.54,1.81-2C510,526.07,509.38,520.77,508.71,515ZM701.2,627.82l-.82.65c2.53,9.38,4.72,18.88,7.76,28.1a20.53,20.53,0,0,0,6.46,8.85c10.85,8.83,23.49,14.29,36.93,17.69,12.39,3.13,24.84,2,37.32-.28,9.72-1.74,16.41-6.69,20.26-15.71,3-7.12,6.22-14.18,9.31-21.27a16.32,16.32,0,0,0,.53-2C778.07,649.07,739.4,640.11,701.2,627.82ZM479.09,556c-1.3,1.13-2.54,1.85-3.25,2.91a78.18,78.18,0,0,0-4.42,7.62c-11,21.73-32.95,26.09-51.77,20.38-3.55-1.08-7-2.43-10.66-3.2-7.51-1.6-13.93-.37-18.7,6.69a37.19,37.19,0,0,1-17.64,13.93c-14.73,5.68-28.68,3.4-41.84-5a53.85,53.85,0,0,0-7.32-4,7,7,0,0,0-6.94.26,72.94,72.94,0,0,0-7,5.63,2.56,2.56,0,0,0-.69,2.2c2.25,6.49,5.65,11.67,13.15,13.24,19.07,4,38.27,4.43,57.55,2.44,15.37-1.59,30.38-5,45.24-9.16a454.35,454.35,0,0,0,57-20.27c1.57-.67,2.05-1.43,1.66-3.14-.72-3.17-1.28-6.38-1.72-9.6C480.83,570.25,480,563.5,479.09,556Zm360-193.09v.68c3.18,0,6.36,0,9.54,0,3.87-.05,7.75,0,11.62-.25a9.27,9.27,0,0,0,8.54-8.13c.5-4.33-1.86-7.67-6.55-9.09a19.75,19.75,0,0,0-4.33-.76c-8.34-.58-16.69-1.33-25-1.56-8.74-.24-17.5-.14-26.24.14-5.32.18-9.4,2.83-11.05,8.1-1.87,6-3.73,12-5,18.09-4.16,19.61-8.07,39.27-12,58.93-.91,4.55-1.66,9.14-2.47,13.71-.52,3,.76,4.84,3.4,6.13a15.93,15.93,0,0,0,10,1.09c.79-.14,1.7-1.32,2-2.21,1-3.24,1.88-6.54,2.7-9.84q8.42-33.93,16.8-67.86c1.38-5.6,3.53-7.22,9.35-7.18C826.52,363,832.8,362.93,839.07,362.93ZM588.65,530.32c0-2.39.11-4.56,0-6.71q-1.8-30.41-3.66-60.79a55.07,55.07,0,0,0-5.85-22.06c-3.47-6.77-5.84-8.09-13.34-7.09a47.29,47.29,0,0,0-6.32,1.42,6.47,6.47,0,0,0-5,5.25c-.65,3.87-1.48,7.84-1.19,11.7.85,11.27,2.18,22.5,3.36,33.75,1.53,14.49,3.11,29,4.6,43.45.16,1.51.73,2,2.19,1.91,2.08-.15,4.18-.13,6.27-.2Zm11-.28h3.1c7.9-.06,15.8-.21,23.69-.13,2.27,0,2.84-.66,2.81-2.86-.25-18.28-.32-36.56-.57-54.83-.11-7.35,0-14.76-.92-22-1.19-9.79-3.09-12.24-11.24-14.31-9.66-2.45-18.33,3.91-18.46,13.72-.14,11.46-.08,22.93.12,34.39.2,11.69.68,23.37,1.05,35.06C599.3,522.66,599.47,526.28,599.61,530Zm-48.88,1.88c-.1-1.86-.12-3-.24-4.15q-2.25-21.82-4.55-43.65c-.87-8.24-1.74-16.48-2.77-24.69-.54-4.35-2.5-8.05-7.07-9.11a38,38,0,0,0-9.65-.74c-7.59.21-12.38,5.7-11.9,13.29.36,5.8.58,11.61,1.13,17.39,1.61,16.95,3.37,33.88,5,50.83.14,1.52,1,1.47,2,1.41,3.79-.21,7.58-.49,11.37-.56C539.54,531.85,545,531.92,550.73,531.92ZM665,495.37c.09-1.35.2-2.2.2-3.05.11-11.29.58-22.6.19-33.88-.29-8.3-8.14-12.75-15.76-9.28a16,16,0,0,0-9.85,14.38c-.51,10.28-.65,20.58-.72,30.88-.08,11.07.1,22.14.18,33.21,0,1.13-.24,2.37,1.63,2.39,7,.1,13.93.27,20.9.46,1.47,0,1.8-.64,1.85-2C664.08,517.3,664.58,506.09,665,495.37Zm118.77,1c-.15.82-.25,1.26-.31,1.7-1.14,7.34-2.18,14.7-3.45,22-.38,2.15.2,2.91,2.27,3.16,9.83,1.15,19.63,2.52,29.47,3.54,4.6.47,9.27.33,13.91.43,1.55,0,2.6-.42,2.74-2.31.18-2.46.76-4.88,1-7.34.66-5.82,1.25-11.65,1.9-17.84A251.16,251.16,0,0,1,783.8,496.33Zm-55.54-17.57c-1.32,9.64-2.62,19-3.8,28.3-.07.51.79,1.48,1.39,1.67,10.9,3.43,21.8,6.84,32.76,10.09,3.15.93,6.45,1.33,9.74,2a10.43,10.43,0,0,0,.41-1.36c1.1-7.35,2.21-14.69,3.26-22,.48-3.31.37-3.18-2.89-4.22-10.15-3.25-20.29-6.55-30.37-10C735.27,482,732,480.34,728.26,478.76Zm-45.81-29.85a10.16,10.16,0,0,0-.38,1.17c-2,11.35-1.41,22.68.31,34a4.22,4.22,0,0,0,1.78,2.47c5.82,3.84,11.63,7.68,17.61,11.25,3.74,2.24,7.77,4,11.87,6.08.26-1.13.46-1.79.56-2.47,1.14-8.51,2.22-17,3.42-25.55a2.81,2.81,0,0,0-1.79-3.41c-10.74-5.6-21-12-29.88-20.31C684.85,451.1,683.73,450.09,682.45,448.91Zm157.42,77.22c11.32-.62,22.13-2.17,32.1-7.21a7.43,7.43,0,0,0,3.14-4.3c1.71-6.1,3.1-12.29,4.54-18.46.53-2.27.88-4.58,1.33-6.94a4.42,4.42,0,0,0-.88,0c-11.09,5-22.8,7.73-34.79,9.39-1.91.27-2.57,1-2.74,2.87-.47,5.31-1.16,10.61-1.75,15.91C840.5,520.2,840.21,523,839.87,526.13Zm-164.58-32c-.14,1-.25,1.49-.27,2-.48,9.43-1,18.86-1.4,28.29-.3,7.49-1.72,5.7,6.16,6.52,1.64.17,2.14-.42,2.07-2.08-.38-9.74-.65-19.49-1-29.23a3.34,3.34,0,0,0-.87-2.21A56.24,56.24,0,0,0,675.29,494.09Z" transform="translate(-251.47 -132.83)"/><path id="coloring-space" data-name="coloring-space" d="M413,265.68c2.54-5.38,4.82-10.28,7.16-15.16.78-1.62,2.17-1.21,3.43-.76,5,1.79,10.06,3.63,15.08,5.44,1.38.5,2.75,1.06,4.16,1.46,3.06.85,5.9-.47,6.91-3.12a5.4,5.4,0,0,0-3.2-7.24c-5.84-2.28-11.76-4.36-17.66-6.47-2.93-1-3-1.13-1.59-3.85,9.16-17.23,18.2-34.53,27.57-51.65a128.74,128.74,0,0,1,22.56-29.41c8.33-8.26,19.84-9.06,29.51-1.32,6,4.79,11.13,10.73,16.29,16.47,4.77,5.29,8.8,11.25,13.67,16.44a10.69,10.69,0,0,1,3.21,8.6c-.13,2.7.18,5.42.26,8.13.16,5.22,3.66,8.84,8.53,8.78s8.5-3.87,8.46-9.15c0-3.49-.12-7-.31-10.46-.11-1.84.56-2.55,2.38-2.44a40.1,40.1,0,0,0,4.65,0c1.42-.08,1.88.49,1.9,1.89,0,4,.17,7.9.35,11.85.21,4.72,3.66,7.92,8.53,8a8.28,8.28,0,0,0,8.25-8.09c.14-4.56,0-9.13,0-14.39,2.56,0,5.15-.1,7.72.1.47,0,1.18,1.28,1.23,2,.22,3.32.24,6.66.35,10,.17,5.58,3.64,9.11,8.8,9,4.83-.15,8.13-3.85,8.1-9.19,0-3.72-.18-7.44-.2-11.16a3.7,3.7,0,0,1,.57-2.11c3.3-4.38,6.66-8.71,10-13,5-6.48,10-13,15.16-19.41a32.3,32.3,0,0,1,10.83-8.62c9.1-4.49,16.84-3.38,24.39,3.38,11,9.87,19.76,21.59,27.19,34.28,8.58,14.63,16.85,29.44,25.31,44.14,1,1.81.46,2.54-1.24,3.28-5.68,2.46-11.37,4.92-16.94,7.62a5.42,5.42,0,0,0-1.13,9.21c2.2,1.65,4.53,1.2,6.83.18,5.38-2.37,10.8-4.69,16.13-7.17,2.12-1,3.18-.49,4.15,1.58,1.8,3.86,3.87,7.59,5.81,11.39.34.66.59,1.36,1,2.26-5.19.71-10.09,1.34-15,2.06-3.67.55-7.34,1.16-11,1.86s-5.65,3.44-5,6.59,3.12,4.69,6.87,4.18c9.42-1.29,18.85-2.55,28.28-3.84,1.85-.25,2.85.66,3.6,2.23,3.74,7.83,7.72,15.55,11.27,23.46q13,29.16,25.7,58.48a7.64,7.64,0,0,1,.24,4.4c-3.18,15.24-6.5,30.44-9.67,45.68-.43,2.1-1.16,2.7-3.34,2.54-8-.59-16.09-1.46-24.12-1.25-13.2.35-26.53.24-39.36,4.12-11.75,3.55-22.16,9.21-28,20.65-2.42,4.78-3.81,10.09-5.65,15.17-.25.71-.37,1.47-.59,2.36-11.25-10.26-22.55-9.6-34.34-.17-2-12.51-9.87-18.3-21.36-19.85-11.73-1.58-20,3.56-25.69,14.05-.53-.89-.86-1.45-1.21-2-1.74-2.73-3.3-5.61-5.28-8.17a15.08,15.08,0,0,0-11.18-5.86,40.42,40.42,0,0,0-17.12,2.33c-5.67,2.05-9,6-10.66,11.65-.41,1.41-.76,2.83-1.16,4.31-3.09-.74-6.06-2.09-9-2-4.74.09-6.62-2.27-8.49-6.21C515.7,412.08,498,399.17,476,391.5c-17.74-6.18-36.09-8.62-54.78-9a233.33,233.33,0,0,0-53.58,4.7c-.52.11-1.05.1-1.92.18a23.58,23.58,0,0,1,.52-2.32,1119.13,1119.13,0,0,1,40.49-105.58c.87-2,2-2.71,4.1-2.55,9.65.75,19.31,1.45,29,2.18,3,.22,5.25-1,6.16-3.49a5.43,5.43,0,0,0-1.81-6.25,6.43,6.43,0,0,0-3-1.15c-8.4-.83-16.81-1.55-25.21-2.31Zm156.56-15.59h0v2.32c0,3.75-1.61,6.11-4.7,6.81a6.94,6.94,0,0,1-7.67-4.29,30.88,30.88,0,0,1-1-3.56c-.91-3.13-3.14-4.58-6.31-4.1a5.29,5.29,0,0,0-4.42,5.67c.23,6.56,3.38,11.36,8.72,15.05a18.71,18.71,0,0,1,4.34,4.92c1.79,2.59,3,5.66,5,8,7.67,8.93,19.53,8,25.88-1.84,1.62-2.53,2.69-5.4,4.22-8A14.87,14.87,0,0,1,597,267c5.1-4,8.09-8.91,8-15.46,0-3.18-2-5.34-4.79-5.61-3.13-.29-5.34,1.5-6.09,4.79a20.21,20.21,0,0,1-1.42,4.63,6.07,6.07,0,0,1-7,3.22c-3.19-.77-4.58-2.52-4.73-6-.09-2-.12-4-.26-6-.23-3.46-2.44-5.69-5.55-5.7s-5.36,2.06-5.64,5.54C569.46,247.6,569.54,248.85,569.54,250.09Zm-48.72,9.44c.06-8-5.74-14-13.57-14-8.13-.05-14.32,5.79-14.37,13.55a13.8,13.8,0,0,0,13.9,14.3C514.86,273.38,520.77,267.58,520.82,259.53Zm125.29,10a13.91,13.91,0,0,0,.41-27.81c-8-.07-14,5.71-14,13.56C632.39,263.4,638.25,269.52,646.11,269.56Z" transform="translate(-251.47 -132.83)" fill="#fff"/><path id="coloring-space-2" data-name="coloring-space" d="M517.67,441.17c-6.72,3.11-11.23,8.1-12.6,15.09-.85,4.38-.57,9.07-.27,13.59.65,10.2,1.68,20.38,2.41,30.57a4.1,4.1,0,0,1-1.38,2.84c-10.69,9.58-22.8,17-35.58,23.46a310.87,310.87,0,0,1-82.33,28.11,365.66,365.66,0,0,1-63.22,6.73,105.37,105.37,0,0,1-38.9-6.81c-9.64-3.67-15.95-10.58-19.56-20.18-5.43-14.41-5.22-28.93-2.15-43.86,4.21-20.55,14.65-37.43,28.78-52.4,18.31-19.4,41-31.14,66.42-38.14,26.17-7.21,52.82-8.66,79.7-5.93,17.69,1.79,34.73,6.12,50.35,15a66.85,66.85,0,0,1,27.87,30.58C517.37,440.2,517.46,440.57,517.67,441.17Zm-70.54,42.67c1.09,0,2.18.07,3.25,0,7.05-.5,12.67-5.62,14.21-12.9,1.21-5.75-1.74-11.62-8.34-14.5a42.62,42.62,0,0,0-25.43-3.13c-6.78,1.31-10.5,5.72-11.25,12.45-.68,6,2.11,10.91,8,13.88C433.7,482.74,440.36,483.59,447.13,483.84Zm-67.89-28.21c1,0,2,0,3,0,8.83-.25,15.91-8.8,14.29-17.48-1.07-5.72-5.24-9.08-10.33-10.65-7.77-2.39-15.77-3.92-24-2.09a13.19,13.19,0,0,0-10.21,11c-1.05,6.43,1.11,11.36,6.23,14.26C364.76,454.4,371.87,455.61,379.24,455.63ZM337.41,510c.93,0,1.86,0,2.78,0,5.64.08,9.82-2.5,12.68-7.19,3.2-5.22,4.3-13.1-3.24-18.22a23.44,23.44,0,0,0-8.34-3.77c-6.78-1.31-13.62-3-20.64-1.09-5.88,1.63-9.35,5.75-10.24,12.59-.73,5.54,1.71,10.19,6.87,13C323.55,508.86,330.36,510,337.41,510Z" transform="translate(-251.47 -132.83)" fill="#fff"/><path id="coloring-space-3" data-name="coloring-space" d="M594,595.62q-47.65.6-95.3,1.25c-1.89,0-2.64-.48-3.12-2.37a206.87,206.87,0,0,1-5.83-35.73c-.59-8.18,4.61-14.09,13.87-14.73q22.95-1.59,45.94-2.39c22.22-.78,44.45-1.59,66.69-1.73,21.14-.13,42.3.55,63.45.94a81,81,0,0,1,9.71.81,15.84,15.84,0,0,1,4.82,1.61c4,2,6.23,5.14,5.63,9.73-.86,6.6-1.72,13.2-2.92,19.74s-2.84,12.69-4.14,19.06c-.38,1.86-1.1,2.5-3,2.52q-25.11.15-50.21.52c-15.19.22-30.37.56-45.55.85Z" transform="translate(-251.47 -132.83)" fill="#fff"/><path id="coloring-space-4" data-name="coloring-space" d="M689.86,604.31c-.41,2-.74,3.67-1.14,5.38-3.7,16.22-7.44,32.43-11.08,48.67-.42,1.9-1.12,2.59-3.17,2.61q-58.9.75-117.81,1.65c-13.79.2-27.57.31-41.36.53-1.56,0-2.35-.36-2.76-2q-6.7-26.45-13.51-52.85a11.49,11.49,0,0,1-.18-1.44Z" transform="translate(-251.47 -132.83)" fill="#fff"/><path id="coloring-space-5" data-name="coloring-space" d="M769.61,416.09c-1,5.09-2.11,10.15-2.89,15.26a150.5,150.5,0,0,0-1.73,15.4c-.17,3.3,1.66,6,4.13,8.27,7.27,6.7,15.82,7.63,25,5.53a9.69,9.69,0,0,0,7.55-7.43q3.25-12.35,6.52-24.69c.22-.81.51-1.61.85-2.68,1.64.51,3.17.95,4.67,1.45,14.69,4.88,29.57,9.31,43.29,16.67,8.69,4.66,17.11,9.75,23.75,17.27,4.58,5.18,4,12.42-2,15.92a75,75,0,0,1-15.8,6.48c-16,4.88-32.4,5.71-49,4.9A217,217,0,0,1,751,476.1c-20.45-7.33-39.82-16.73-56.56-30.92-3.74-3.17-6.26-6.88-5.63-12.05a10.23,10.23,0,0,1,4.31-7.16,48.89,48.89,0,0,1,25-9.9c7.16-.68,14.36-1.38,21.55-1.39,9.72,0,19.45.62,29.18,1C768.94,415.67,769.07,415.8,769.61,416.09Z" transform="translate(-251.47 -132.83)" fill="#fff"/><path id="coloring-space-6" data-name="coloring-space" d="M708.87,562.16c22,7.54,44,13.75,66.61,17.57A222,222,0,0,0,844.25,581a18.63,18.63,0,0,1-.51,2c-6.08,15.16-12.2,30.31-18.22,45.49-1,2.59-2.44,3.74-5.37,4.11a212.88,212.88,0,0,1-63.39-1.84c-18.91-3.27-37.24-8.53-55.37-14.63-3.3-1.11-3.68-1.75-3-5.07,3-13.92,6.07-27.83,9.09-41.75C708,567.11,708.38,564.82,708.87,562.16Z" transform="translate(-251.47 -132.83)" fill="#fff"/><path id="coloring-space-7" data-name="coloring-space" d="M674.74,670.87c-1.41,5.94-2.65,11.53-4.08,17.06-1.12,4.34-2,8.84-3.87,12.86a43.41,43.41,0,0,1-7,10c-2.75,3.13-6.54,4.45-10.81,4.57-17.65.51-35.3,1.27-52.95,1.69-15.25.36-30.51.49-45.76.52-6.16,0-12.18-1.07-17.59-4.35-5.17-3.15-7.77-8.21-9.47-13.64-2.61-8.34-4.77-16.81-7.11-25.24a6.47,6.47,0,0,1,0-1.31Z" transform="translate(-251.47 -132.83)" fill="#fff"/><path id="coloring-space-8" data-name="coloring-space" d="M486.33,599.45c1.45,5.71,2.84,11.17,4.21,16.63,1.33,5.25,2.58,10.53,4,15.76.47,1.71,0,2.43-1.54,3.16a285.18,285.18,0,0,1-69.41,21.61c-15.55,2.84-31.17,5.24-47,5.25-14,0-28.1-.1-41.8-3.44-11.66-2.84-20-10.1-25.12-21-2-4.19-1.37-8.13.86-11.95a2,2,0,0,1,1.75-.75c15.45,5.5,31.53,6.08,47.67,6.14,26.95.11,52.9-5.77,78.35-13.83,15.39-4.87,30.37-11,45.54-16.64C484.55,600.14,485.26,599.86,486.33,599.45Z" transform="translate(-251.47 -132.83)" fill="#fff"/><path id="coloring-space-9" data-name="coloring-space" d="M691.91,505.59c53.67,26.46,109.59,38.18,169.33,29.58-.87,2.71-1.7,5.59-2.71,8.39-2.8,7.79-5.7,15.55-8.5,23.33a3.79,3.79,0,0,1-3.36,2.65,201.81,201.81,0,0,1-51.2,1.63C766.69,568.45,739,561,711.83,551.51a3.11,3.11,0,0,1-2.46-2.82c-1.36-8.28-6.68-13.18-14.32-15.81-1.66-.58-2.27-1.31-2.31-3.08C692.55,521.75,692.2,513.7,691.91,505.59Z" transform="translate(-251.47 -132.83)" fill="#fff"/><path id="coloring-space-10" data-name="coloring-space" d="M508.71,515c.67,5.77,1.26,11.07,1.9,16.37.18,1.45-.49,1.83-1.81,2-4,.5-8,.91-11.93,1.77a21.89,21.89,0,0,0-12.72,8.41,4,4,0,0,1-2.58,1.48,18.8,18.8,0,0,0-16.28,10.32c-1.67,3-3.29,6.14-5.09,9.12-5.34,8.83-13.2,13.39-23.49,14a41,41,0,0,1-17.93-3.07,43.51,43.51,0,0,0-16.14-2.74c-8.11,0-14.4,3.22-19.46,9.54a52.15,52.15,0,0,1-9.29,9.31c-12,8.91-28.27,5.21-36.91-.86-5.48-3.86-11.27-6.79-18.23-6.52a16.32,16.32,0,0,0-9.3,3.19,69.23,69.23,0,0,0-5.41,4.4,24.62,24.62,0,0,1-12.81,6.12c-5.57.94-10.06-1.27-13.52-5.49s-2.08-8.73-.41-13.2c2.07-5.52,6.67-8.58,11.31-11.56a3,3,0,0,1,2.18-.09c15.75,4.74,31.91,5.42,48.1,3.94q24.62-2.24,49.08-6c17.8-2.72,34.95-8.13,51.87-14.22,17.37-6.25,34.23-13.65,50-23.37,5.78-3.58,11.25-7.67,16.86-11.53Z" transform="translate(-251.47 -132.83)" fill="#fff"/><path id="coloring-space-11" data-name="coloring-space" d="M701.2,627.82c38.2,12.29,76.87,21.25,117.75,16a16.32,16.32,0,0,1-.53,2c-3.09,7.09-6.27,14.15-9.31,21.27-3.85,9-10.54,14-20.26,15.71-12.48,2.24-24.93,3.41-37.32.28-13.44-3.4-26.08-8.86-36.93-17.69a20.53,20.53,0,0,1-6.46-8.85c-3-9.22-5.23-18.72-7.76-28.1Z" transform="translate(-251.47 -132.83)" fill="#fff"/><path id="coloring-space-12" data-name="coloring-space" d="M479.09,556c.94,7.48,1.74,14.23,2.65,21,.44,3.22,1,6.43,1.72,9.6.39,1.71-.09,2.47-1.66,3.14a454.35,454.35,0,0,1-57,20.27c-14.86,4.11-29.87,7.57-45.24,9.16-19.28,2-38.48,1.55-57.55-2.44-7.5-1.57-10.9-6.75-13.15-13.24a2.56,2.56,0,0,1,.69-2.2,72.94,72.94,0,0,1,7-5.63,7,7,0,0,1,6.94-.26,53.85,53.85,0,0,1,7.32,4c13.16,8.4,27.11,10.68,41.84,5a37.19,37.19,0,0,0,17.64-13.93c4.77-7.06,11.19-8.29,18.7-6.69,3.62.77,7.11,2.12,10.66,3.2,18.82,5.71,40.74,1.35,51.77-20.38a78.18,78.18,0,0,1,4.42-7.62C476.55,557.87,477.79,557.15,479.09,556Z" transform="translate(-251.47 -132.83)" fill="#fff"/><path id="coloring-space-13" data-name="coloring-space" d="M839.07,362.93c-6.27,0-12.55,0-18.82,0-5.82,0-8,1.58-9.35,7.18Q802.51,404,794.1,438c-.82,3.3-1.66,6.6-2.7,9.84-.28.89-1.19,2.07-2,2.21a15.93,15.93,0,0,1-10-1.09c-2.64-1.29-3.92-3.17-3.4-6.13.81-4.57,1.56-9.16,2.47-13.71,4-19.66,7.87-39.32,12-58.93,1.29-6.11,3.15-12.12,5-18.09,1.65-5.27,5.73-7.92,11.05-8.1,8.74-.28,17.5-.38,26.24-.14,8.35.23,16.7,1,25,1.56a19.75,19.75,0,0,1,4.33.76c4.69,1.42,7,4.76,6.55,9.09a9.27,9.27,0,0,1-8.54,8.13c-3.87.24-7.75.2-11.62.25-3.18,0-6.36,0-9.54,0Z" transform="translate(-251.47 -132.83)" fill="#fff"/><path id="coloring-space-14" data-name="coloring-space" d="M588.65,530.32l-19,.63c-2.09.07-4.19,0-6.27.2-1.46.1-2-.4-2.19-1.91-1.49-14.49-3.07-29-4.6-43.45-1.18-11.25-2.51-22.48-3.36-33.75-.29-3.86.54-7.83,1.19-11.7a6.47,6.47,0,0,1,5-5.25,47.29,47.29,0,0,1,6.32-1.42c7.5-1,9.87.32,13.34,7.09A55.07,55.07,0,0,1,585,462.82q1.83,30.39,3.66,60.79C588.76,525.76,588.65,527.93,588.65,530.32Z" transform="translate(-251.47 -132.83)" fill="#fff"/><path id="coloring-space-15" data-name="coloring-space" d="M599.61,530c-.14-3.76-.31-7.38-.42-11-.37-11.69-.85-23.37-1.05-35.06-.2-11.46-.26-22.93-.12-34.39.13-9.81,8.8-16.17,18.46-13.72,8.15,2.07,10,4.52,11.24,14.31.88,7.27.81,14.68.92,22,.25,18.27.32,36.55.57,54.83,0,2.2-.54,2.88-2.81,2.86-7.89-.08-15.79.07-23.69.13Z" transform="translate(-251.47 -132.83)" fill="#fff"/><path id="coloring-space-16" data-name="coloring-space" d="M550.73,531.92c-5.78,0-11.19-.07-16.6,0-3.79.07-7.58.35-11.37.56-1.08.06-1.91.11-2-1.41-1.66-17-3.42-33.88-5-50.83-.55-5.78-.77-11.59-1.13-17.39-.48-7.59,4.31-13.08,11.9-13.29a38,38,0,0,1,9.65.74c4.57,1.06,6.53,4.76,7.07,9.11,1,8.21,1.9,16.45,2.77,24.69q2.31,21.83,4.55,43.65C550.61,528.91,550.63,530.06,550.73,531.92Z" transform="translate(-251.47 -132.83)" fill="#fff"/><path id="coloring-space-17" data-name="coloring-space" d="M665,495.37c-.45,10.72-.95,21.93-1.38,33.15,0,1.32-.38,2-1.85,2-7-.19-13.93-.36-20.9-.46-1.87,0-1.62-1.26-1.63-2.39-.08-11.07-.26-22.14-.18-33.21.07-10.3.21-20.6.72-30.88a16,16,0,0,1,9.85-14.38c7.62-3.47,15.47,1,15.76,9.28.39,11.28-.08,22.59-.19,33.88C665.23,493.17,665.12,494,665,495.37Z" transform="translate(-251.47 -132.83)" fill="#fff"/><path id="coloring-space-18" data-name="coloring-space" d="M783.8,496.33a251.16,251.16,0,0,0,47.57,3.36c-.65,6.19-1.24,12-1.9,17.84-.28,2.46-.86,4.88-1,7.34-.14,1.89-1.19,2.34-2.74,2.31-4.64-.1-9.31,0-13.91-.43-9.84-1-19.64-2.39-29.47-3.54-2.07-.25-2.65-1-2.27-3.16,1.27-7.32,2.31-14.68,3.45-22C783.55,497.59,783.65,497.15,783.8,496.33Z" transform="translate(-251.47 -132.83)" fill="#fff"/><path id="coloring-space-19" data-name="coloring-space" d="M728.26,478.76c3.7,1.58,7,3.24,10.5,4.43,10.08,3.45,20.22,6.75,30.37,10,3.26,1,3.37.91,2.89,4.22-1,7.35-2.16,14.69-3.26,22a10.43,10.43,0,0,1-.41,1.36c-3.29-.66-6.59-1.06-9.74-2-11-3.25-21.86-6.66-32.76-10.09-.6-.19-1.46-1.16-1.39-1.67C725.64,497.72,726.94,488.4,728.26,478.76Z" transform="translate(-251.47 -132.83)" fill="#fff"/><path id="coloring-space-20" data-name="coloring-space" d="M682.45,448.91c1.28,1.18,2.4,2.19,3.5,3.22,8.9,8.33,19.14,14.71,29.88,20.31a2.81,2.81,0,0,1,1.79,3.41c-1.2,8.51-2.28,17-3.42,25.55-.1.68-.3,1.34-.56,2.47-4.1-2.08-8.13-3.84-11.87-6.08-6-3.57-11.79-7.41-17.61-11.25a4.22,4.22,0,0,1-1.78-2.47c-1.72-11.31-2.3-22.64-.31-34A10.16,10.16,0,0,1,682.45,448.91Z" transform="translate(-251.47 -132.83)" fill="#fff"/><path id="coloring-space-21" data-name="coloring-space" d="M839.87,526.13c.34-3.12.63-5.93,1-8.74.59-5.3,1.28-10.6,1.75-15.91.17-1.88.83-2.6,2.74-2.87,12-1.66,23.7-4.4,34.79-9.39a4.42,4.42,0,0,1,.88,0c-.45,2.36-.8,4.67-1.33,6.94-1.44,6.17-2.83,12.36-4.54,18.46a7.43,7.43,0,0,1-3.14,4.3C862,524,851.19,525.51,839.87,526.13Z" transform="translate(-251.47 -132.83)" fill="#fff"/><path id="coloring-space-22" data-name="coloring-space" d="M675.29,494.09A56.24,56.24,0,0,1,680,497.4a3.34,3.34,0,0,1,.87,2.21c.37,9.74.64,19.49,1,29.23.07,1.66-.43,2.25-2.07,2.08-7.88-.82-6.46,1-6.16-6.52.39-9.43.92-18.86,1.4-28.29C675,495.58,675.15,495.06,675.29,494.09Z" transform="translate(-251.47 -132.83)" fill="#fff"/><path id="cats-mouth" d="M569.54,250.09c0-1.24-.08-2.49,0-3.72.28-3.48,2.43-5.56,5.64-5.54s5.32,2.24,5.55,5.7c.14,2,.17,4,.26,6,.15,3.46,1.54,5.21,4.73,6a6.07,6.07,0,0,0,7-3.22,20.21,20.21,0,0,0,1.42-4.63c.75-3.29,3-5.08,6.09-4.79,2.79.27,4.76,2.43,4.79,5.61.08,6.55-2.91,11.51-8,15.46a14.87,14.87,0,0,0-3.4,4.14c-1.53,2.59-2.6,5.46-4.22,8-6.35,9.88-18.21,10.77-25.88,1.84-2-2.37-3.24-5.44-5-8a18.71,18.71,0,0,0-4.34-4.92c-5.34-3.69-8.49-8.49-8.72-15.05a5.29,5.29,0,0,1,4.42-5.67c3.17-.48,5.4,1,6.31,4.1a30.88,30.88,0,0,0,1,3.56,6.94,6.94,0,0,0,7.67,4.29c3.09-.7,4.71-3.06,4.7-6.81v-2.32Zm6.38,25.84c2,0,4.74-2.59,5.53-5.35.64-2.25-1.77-1.86-2.65-2.8a4.2,4.2,0,0,0-1.7-1.17,3.7,3.7,0,0,0-2.38-.2,32.29,32.29,0,0,0-4.44,2.82,1.56,1.56,0,0,0-.41,1.22C570,272.36,574,275.93,575.92,275.93Z" transform="translate(-251.47 -132.83)"/><path id="cats-eye" d="M520.82,259.53c-.05,8.05-6,13.85-14,13.81a13.8,13.8,0,0,1-13.9-14.3c.05-7.76,6.24-13.6,14.37-13.55C515.08,245.54,520.88,251.54,520.82,259.53Z" transform="translate(-251.47 -132.83)"/><path id="cats-eye-2" data-name="cats-eye" d="M646.11,269.56c-7.86,0-13.72-6.16-13.64-14.25.07-7.85,6.07-13.63,14-13.56a13.91,13.91,0,0,1-.41,27.81Z" transform="translate(-251.47 -132.83)"/><path id="burger-grain" d="M447.13,483.84c-6.77-.25-13.43-1.1-19.58-4.21-5.87-3-8.66-7.85-8-13.88.75-6.73,4.47-11.14,11.25-12.45a42.62,42.62,0,0,1,25.43,3.13c6.6,2.88,9.55,8.75,8.34,14.5-1.54,7.28-7.16,12.4-14.21,12.9C449.31,483.91,448.22,483.84,447.13,483.84Zm-9.54-20.76,0,.2c-1.46.11-2.94.14-4.38.34-2.21.32-2.63,2.08-3,3.89s1.07,2.06,2.12,2.55a34.57,34.57,0,0,0,16,3.17c3.3-.13,5.21-1.5,5.53-3.86.27-1.93-1.42-3.73-4.57-4.37C445.38,464.22,441.48,463.71,437.59,463.08Z" transform="translate(-251.47 -132.83)"/><path id="burger-grain-2" data-name="burger-grain" d="M379.24,455.63c-7.37,0-14.48-1.23-21-4.91-5.12-2.9-7.28-7.83-6.23-14.26a13.19,13.19,0,0,1,10.21-11c8.24-1.83,16.24-.3,24,2.09,5.09,1.57,9.26,4.93,10.33,10.65,1.62,8.68-5.46,17.23-14.29,17.48C381.26,455.66,380.25,455.63,379.24,455.63ZM378,445.78l.17-.75c1.31,0,2.63.08,3.93,0a4.53,4.53,0,0,0,4-4.39c0-.94-1.48-2.19-2.57-2.66-5.26-2.29-10.9-2.62-16.54-2.76a5.5,5.5,0,0,0-1.58.33c-1.6.44-2.76,1.22-2.9,3.12s.6,3.19,2.4,3.68C369.23,443.53,373.61,444.64,378,445.78Z" transform="translate(-251.47 -132.83)"/><path id="burger-grain-3" data-name="burger-grain" d="M337.41,510c-7.05-.06-13.86-1.18-20.13-4.64-5.16-2.85-7.6-7.5-6.87-13,.89-6.84,4.36-11,10.24-12.59,7-1.93,13.86-.22,20.64,1.09a23.44,23.44,0,0,1,8.34,3.77c7.54,5.12,6.44,13,3.24,18.22-2.86,4.69-7,7.27-12.68,7.19C339.27,510,338.34,510,337.41,510Zm-.64-10.61a41.61,41.61,0,0,0,4.18,0c2.51-.25,3.17-2.39,3.52-4.3.13-.71-1.11-2.18-2-2.47a61,61,0,0,0-9.82-2.51,45.69,45.69,0,0,0-8.52-.19c-1.54.05-3,.42-3.09,2.63s.45,3.35,2.4,4.19A30.9,30.9,0,0,0,336.77,499.43Z" transform="translate(-251.47 -132.83)"/><path id="coloring-space-23" data-name="coloring-space" d="M575.92,275.93c-1.89,0-5.88-3.57-6-5.48a1.56,1.56,0,0,1,.41-1.22,32.29,32.29,0,0,1,4.44-2.82,3.7,3.7,0,0,1,2.38.2,4.2,4.2,0,0,1,1.7,1.17c.88.94,3.29.55,2.65,2.8C580.66,273.34,577.89,275.93,575.92,275.93Z" transform="translate(-251.47 -132.83)" fill="#fff"/><path id="coloring-space-24" data-name="coloring-space" d="M437.59,463.08c3.89.63,7.79,1.14,11.64,1.92,3.15.64,4.84,2.44,4.57,4.37-.32,2.36-2.23,3.73-5.53,3.86a34.57,34.57,0,0,1-16-3.17c-1-.49-2.47-.78-2.12-2.55s.79-3.57,3-3.89c1.44-.2,2.92-.23,4.38-.34Z" transform="translate(-251.47 -132.83)" fill="#fff"/><path id="coloring-space-25" data-name="coloring-space" d="M378,445.78c-4.37-1.14-8.75-2.25-13.11-3.45-1.8-.49-2.54-1.76-2.4-3.68s1.3-2.68,2.9-3.12a5.5,5.5,0,0,1,1.58-.33c5.64.14,11.28.47,16.54,2.76,1.09.47,2.54,1.72,2.57,2.66a4.53,4.53,0,0,1-4,4.39c-1.3.1-2.62,0-3.93,0Z" transform="translate(-251.47 -132.83)" fill="#fff"/><path id="coloring-space-26" data-name="coloring-space" d="M336.77,499.43a30.9,30.9,0,0,1-13.32-2.68c-1.95-.84-2.53-2.09-2.4-4.19s1.55-2.58,3.09-2.63a45.69,45.69,0,0,1,8.52.19,61,61,0,0,1,9.82,2.51c.88.29,2.12,1.76,2,2.47-.35,1.91-1,4-3.52,4.3A41.61,41.61,0,0,1,336.77,499.43Z" transform="translate(-251.47 -132.83)" fill="#fff"/></svg>